<svg width="449" height="318" viewBox="0 0 449 318" fill="none" xmlns="http://www.w3.org/2000/svg">
<path fill-rule="evenodd" clip-rule="evenodd" d="M143.477 53.4524L232.096 13.5752L315.475 51.0948L320.714 53.4524L315.022 56.0138L286.163 69L232.096 93.3295L178.029 69L143.477 53.4524ZM229.756 105.969C230.499 106.303 231.301 106.473 232.096 106.473C232.891 106.473 233.692 106.303 234.435 105.969L300.459 76.3605V100.253V131.355V141.809L232.096 156.115L163.733 141.809V76.3605L229.756 105.969ZM15.1918 225.876C15.1918 201.486 34.7265 200.234 38.8671 200.234H38.8787H195.805V251.518H38.7515L38.6763 257.929V251.518C34.7555 251.518 15.1918 250.285 15.1918 225.876ZM227.72 298.842L222.812 303.745V263.019H241.38V303.745L236.472 298.842C235.263 297.634 233.679 297.03 232.096 297.03C230.512 297.03 228.929 297.634 227.72 298.842ZM424.911 200.234H266.699V251.141H425.092C427.38 251.054 449 249.569 449 225.688C449 201.806 427.38 200.321 424.911 200.234ZM207.62 251.141H216.482H246.022H254.883V200.234H207.62V251.141ZM312.274 70.8741V93.3295H315.65V69.5729L312.274 70.8741ZM329.154 105.208V125.571H312.274V105.208H320.714H329.154Z" fill="#AADCEC"/>
<path d="M328.408 57.5358C330.552 56.5754 331.939 54.3681 331.939 51.9221C331.939 49.4762 330.552 47.2689 328.408 46.3085L226.496 0.492167C225.041 -0.164056 223.369 -0.164056 221.913 0.492167L120.002 46.3085C117.858 47.2689 116.47 49.4762 116.47 51.9221C116.47 54.3681 117.858 56.5754 120.002 57.5358L145.587 69.0384V143.555C145.587 146.466 147.549 148.972 150.268 149.544L223.062 164.816C223.437 164.894 223.824 164.936 224.205 164.936C224.586 164.936 224.972 164.894 225.348 164.816L298.141 149.544C300.86 148.972 302.822 146.466 302.822 143.555V134.391H326.116C329.335 134.391 331.939 131.659 331.939 128.283V97.7384C331.939 94.3619 329.335 91.6296 326.116 91.6296H317.381V62.4933L328.408 57.5358ZM320.292 122.174H302.822V103.847H320.292V122.174ZM224.205 12.7516L311.33 51.9221L224.205 91.0927L137.08 51.9221L224.205 12.7516ZM157.234 74.2747L221.913 103.352C222.641 103.68 223.425 103.847 224.205 103.847C224.984 103.847 225.769 103.68 226.496 103.352L291.175 74.2747V138.55L224.205 152.599L157.234 138.55V74.2747ZM305.734 91.6296H302.822V69.0384L305.734 67.7293V91.6296Z" fill="#7F00E0"/>
<path d="M413.468 183.602H34.7419C21.8381 183.602 0 191.321 0 220.255C0 249.188 21.8381 256.908 34.7419 256.908H203.822V311.887C203.822 314.357 205.238 316.588 207.417 317.531C209.595 318.485 212.097 317.954 213.763 316.206L224.205 305.253L234.646 316.206C235.761 317.376 237.251 317.996 238.763 317.996C239.514 317.996 240.27 317.847 240.993 317.531C243.171 316.588 244.587 314.357 244.587 311.887V256.908H413.622C425.65 256.58 448.409 248.496 448.409 220.255C448.409 192.013 425.65 183.93 413.468 183.602ZM413.468 244.69H259.146V195.819H413.292C415.698 195.903 436.762 197.329 436.762 220.255C436.762 243.181 415.698 244.606 413.468 244.69ZM232.94 297.14L228.322 292.296C227.185 291.103 225.695 290.506 224.205 290.506C222.715 290.506 221.225 291.103 220.087 292.296L215.469 297.14V256.908H232.94V297.14ZM200.911 244.69V195.819H247.499V244.69H200.911ZM34.7419 250.799V244.69C30.8861 244.69 11.647 243.515 11.647 220.255C11.647 197.012 30.8577 195.819 34.9296 195.819H189.264V244.69H34.8159L34.7419 250.799Z" fill="#7F00E0"/>
</svg>
