<svg width="432" height="373" viewBox="0 0 432 373" fill="none" xmlns="http://www.w3.org/2000/svg">
<path d="M130.126 194.784C130.351 191.239 128.867 187.843 125.987 185.231C120.047 179.821 109.924 179.447 103.399 184.336L49.0449 225.457C45.7152 227.957 43.8254 231.539 43.8254 235.271C43.8254 239.002 45.7152 242.584 49.0449 245.084L103.444 286.131C106.369 288.37 110.194 289.601 114.198 289.601C118.698 289.601 123.017 288.034 126.032 285.273C128.912 282.661 130.396 279.265 130.171 275.72C129.991 272.175 128.102 268.929 124.952 266.54L83.5113 235.271L124.952 204.001C128.102 201.575 129.946 198.329 130.126 194.784ZM118.293 197.918L68.8428 235.271L118.293 272.586C119.508 273.481 120.182 274.75 120.272 276.093C120.362 277.436 119.778 278.742 118.698 279.75C116.538 281.728 112.488 281.914 110.104 280.086L55.6592 239.002C54.3993 238.032 53.6794 236.689 53.6794 235.271C53.6794 233.853 54.3993 232.472 55.6592 231.539L110.059 190.455C111.228 189.56 112.713 189.149 114.153 189.149C115.818 189.149 117.483 189.709 118.653 190.791C119.733 191.799 120.317 193.067 120.227 194.411C120.182 195.754 119.508 197.023 118.293 197.918ZM241.265 275.72C241.085 279.265 242.525 282.661 245.404 285.273C248.419 288.034 252.739 289.601 257.238 289.601C261.198 289.601 265.022 288.37 267.992 286.131L322.391 245.047C325.721 242.547 327.611 238.965 327.611 235.233C327.611 231.502 325.721 227.957 322.391 225.419L267.992 184.373C264.842 181.985 260.793 180.753 256.473 180.94C252.199 181.127 248.284 182.657 245.404 185.269C242.525 187.881 241.04 191.276 241.265 194.821C241.49 198.366 243.335 201.613 246.484 204.001L287.925 235.271L246.484 266.54C243.335 268.891 241.49 272.175 241.265 275.72ZM253.144 272.586L302.593 235.271L253.144 197.918C251.929 197.023 251.254 195.754 251.164 194.411C251.074 193.067 251.659 191.761 252.739 190.754C253.819 189.746 255.303 189.187 256.968 189.112C257.058 189.112 257.148 189.112 257.283 189.112C258.813 189.112 260.253 189.56 261.378 190.418L315.777 231.502C317.037 232.472 317.757 233.815 317.757 235.233C317.757 236.651 317.037 238.032 315.777 238.965L261.333 280.049C258.903 281.877 254.898 281.728 252.739 279.713C251.659 278.705 251.074 277.436 251.164 276.093C251.209 274.75 251.929 273.481 253.144 272.586ZM155.234 288.594C157.169 289.265 159.193 289.601 161.308 289.601C167.833 289.601 173.637 286.355 176.112 281.392L216.787 199.224C220.117 192.47 216.202 184.709 208.058 181.948C199.914 179.186 190.555 182.433 187.225 189.187L146.55 271.354C143.175 278.033 147.045 285.795 155.234 288.594ZM155.639 274.414L196.315 192.246C197.259 190.306 199.554 189.112 201.984 189.112C202.749 189.112 203.514 189.224 204.279 189.485C207.383 190.53 208.868 193.515 207.608 196.09L166.933 278.257C165.673 280.757 162.073 282.064 158.968 281.019C155.864 279.937 154.379 276.989 155.639 274.414ZM412.877 0H79.5517C69.0228 0 60.4737 7.05253 60.4737 15.7842V64.9653H19.078C8.54911 64.9653 0 72.0178 0 80.7122V357.216C0 365.947 8.54911 373 19.078 373H352.403C362.887 373 371.436 365.947 371.436 357.216L369.411 308.035L412.922 308.035C423.406 308.035 432 300.982 432 292.288V15.7842C431.955 7.05253 423.361 0 412.877 0ZM361.537 357.216C361.537 361.395 357.443 364.791 352.403 364.791H19.078C13.9935 364.791 9.89897 361.395 9.89897 357.216V105.713H361.582V357.216H361.537ZM361.537 97.5039H9.85397V80.7122C9.85397 76.5702 13.9485 73.1746 19.033 73.1746H352.358C357.398 73.1746 361.492 76.5702 361.492 80.7122V97.5039H361.537ZM422.101 292.288C422.101 296.43 417.961 299.825 412.922 299.825H371.436V80.7122C371.436 72.0178 362.887 64.9653 352.403 64.9653L70.3727 64.9653V15.7842C70.3727 11.6049 74.4672 8.20928 79.5517 8.20928H412.877C417.916 8.20928 422.056 11.6049 422.056 15.7842V292.288H422.101ZM289.05 85.3392C289.05 88.511 285.945 91.0857 282.121 91.0857C278.296 91.0857 275.191 88.511 275.191 85.3392C275.191 82.1301 278.296 79.5927 282.121 79.5927C285.945 79.5927 289.05 82.1675 289.05 85.3392ZM317.442 85.3392C317.442 88.511 314.382 91.0857 310.513 91.0857C306.688 91.0857 303.583 88.511 303.583 85.3392C303.583 82.1301 306.688 79.5927 310.513 79.5927C314.382 79.5927 317.442 82.1675 317.442 85.3392ZM345.924 85.3392C345.924 88.511 342.819 91.0857 338.995 91.0857C335.17 91.0857 332.065 88.511 332.065 85.3392C332.065 82.1301 335.17 79.5927 338.995 79.5927C342.819 79.5927 345.924 82.1675 345.924 85.3392ZM347.904 22.7621C347.904 25.9712 344.799 28.5086 340.974 28.5086C337.15 28.5086 334.045 25.9712 334.045 22.7621C334.045 19.5903 337.15 17.0156 340.974 17.0156C344.799 17.0156 347.904 19.5903 347.904 22.7621ZM376.341 22.7621C376.341 25.9712 373.281 28.5086 369.411 28.5086C365.587 28.5086 362.482 25.9712 362.482 22.7621C362.482 19.5903 365.587 17.0156 369.411 17.0156C373.281 17.0156 376.341 19.5903 376.341 22.7621ZM404.778 22.7621C404.778 25.9712 401.673 28.5086 397.849 28.5086C394.024 28.5086 390.919 25.9712 390.919 22.7621C390.919 19.5903 394.024 17.0156 397.849 17.0156C401.673 17.0156 404.778 19.5903 404.778 22.7621ZM39.1009 314.453C39.1009 312.177 41.3057 310.348 44.0504 310.348H124.277C127.022 310.348 129.227 312.177 129.227 314.453C129.227 316.729 127.022 318.558 124.277 318.558H44.0504C41.3507 318.558 39.1009 316.729 39.1009 314.453ZM39.1009 343.111C39.1009 340.835 41.3057 339.006 44.0504 339.006H185.696C188.44 339.006 190.645 340.835 190.645 343.111C190.645 345.387 188.44 347.215 185.696 347.215H44.0504C41.3507 347.215 39.1009 345.387 39.1009 343.111ZM39.1009 125.341C39.1009 123.065 41.3057 121.236 44.0504 121.236H97.3249C100.07 121.236 102.274 123.065 102.274 125.341C102.274 127.617 100.07 129.445 97.3249 129.445H44.0504C41.3507 129.445 39.1009 127.617 39.1009 125.341ZM39.1009 154.036C39.1009 151.76 41.3057 149.931 44.0504 149.931H138.091C140.835 149.931 143.04 151.76 143.04 154.036C143.04 156.312 140.835 158.141 138.091 158.141H44.0504C41.3507 158.103 39.1009 156.275 39.1009 154.036Z" fill="#7F00E0"/>
<path fill-rule="evenodd" clip-rule="evenodd" d="M422.101 292.288C422.101 296.43 417.961 299.825 412.922 299.825H371.436V80.7122C371.436 72.0178 362.887 64.9653 352.403 64.9653L70.3727 64.9653V15.7842C70.3727 11.6049 74.4672 8.20928 79.5517 8.20928H412.877C417.916 8.20928 422.056 11.6049 422.056 15.7842V292.288H422.101ZM340.974 28.5086C344.799 28.5086 347.904 25.9712 347.904 22.7621C347.904 19.5903 344.799 17.0156 340.974 17.0156C337.15 17.0156 334.045 19.5903 334.045 22.7621C334.045 25.9712 337.15 28.5086 340.974 28.5086ZM369.411 28.5086C373.281 28.5086 376.341 25.9712 376.341 22.7621C376.341 19.5903 373.281 17.0156 369.411 17.0156C365.587 17.0156 362.482 19.5903 362.482 22.7621C362.482 25.9712 365.587 28.5086 369.411 28.5086ZM397.849 28.5086C401.673 28.5086 404.778 25.9712 404.778 22.7621C404.778 19.5903 401.673 17.0156 397.849 17.0156C394.024 17.0156 390.919 19.5903 390.919 22.7621C390.919 25.9712 394.024 28.5086 397.849 28.5086Z" fill="#AADCEC"/>
<path fill-rule="evenodd" clip-rule="evenodd" d="M361.492 97.5039H9.85397V80.7122C9.85397 76.5702 13.9485 73.1746 19.033 73.1746H352.358C357.398 73.1746 361.492 76.5702 361.492 80.7122V97.5039ZM282.121 91.0857C285.945 91.0857 289.05 88.511 289.05 85.3392C289.05 82.1675 285.945 79.5927 282.121 79.5927C278.296 79.5927 275.191 82.1301 275.191 85.3392C275.191 88.511 278.296 91.0857 282.121 91.0857ZM310.513 91.0857C314.382 91.0857 317.442 88.511 317.442 85.3392C317.442 82.1675 314.382 79.5927 310.513 79.5927C306.688 79.5927 303.583 82.1301 303.583 85.3392C303.583 88.511 306.688 91.0857 310.513 91.0857ZM338.995 91.0857C342.819 91.0857 345.924 88.511 345.924 85.3392C345.924 82.1675 342.819 79.5927 338.995 79.5927C335.17 79.5927 332.065 82.1301 332.065 85.3392C332.065 88.511 335.17 91.0857 338.995 91.0857Z" fill="#AADCEC"/>
<path d="M253.144 272.586L302.593 235.271L253.144 197.918C251.929 197.023 251.254 195.754 251.164 194.411C251.074 193.067 251.659 191.761 252.739 190.754C253.819 189.746 255.303 189.187 256.968 189.112H257.283C258.813 189.112 260.253 189.56 261.378 190.418L315.777 231.502C317.037 232.472 317.757 233.815 317.757 235.233C317.757 236.651 317.037 238.032 315.777 238.965L261.333 280.049C258.903 281.877 254.898 281.728 252.739 279.713C251.659 278.705 251.074 277.436 251.164 276.093C251.209 274.75 251.929 273.481 253.144 272.586Z" fill="#AADCEC"/>
<path d="M118.293 197.918L68.8428 235.271L118.293 272.586C119.508 273.481 120.182 274.75 120.272 276.093C120.362 277.436 119.778 278.742 118.698 279.75C116.538 281.728 112.488 281.914 110.104 280.086L55.6592 239.002C54.3993 238.032 53.6794 236.689 53.6794 235.271C53.6794 233.853 54.3993 232.472 55.6592 231.539L110.059 190.455C111.228 189.56 112.713 189.149 114.153 189.149C115.818 189.149 117.483 189.709 118.653 190.791C119.733 191.799 120.317 193.067 120.227 194.411C120.182 195.754 119.508 197.023 118.293 197.918Z" fill="#AADCEC"/>
<path d="M155.639 274.414L196.315 192.246C197.259 190.306 199.554 189.112 201.984 189.112C202.749 189.112 203.514 189.224 204.279 189.485C207.383 190.53 208.868 193.515 207.608 196.09L166.933 278.257C165.673 280.757 162.073 282.064 158.968 281.019C155.864 279.937 154.379 276.989 155.639 274.414Z" fill="#AADCEC"/>
</svg>
