<svg width="294" height="360" viewBox="0 0 294 360" fill="none" xmlns="http://www.w3.org/2000/svg">
<path d="M209.559 213.534C208.834 212.082 207.498 210.949 205.844 210.383C204.191 209.818 202.356 209.867 200.742 210.519C199.129 211.172 197.869 212.374 197.241 213.862C196.613 215.35 196.667 217.002 197.392 218.454L236.319 296.454C236.671 297.183 237.18 297.841 237.816 298.391C238.453 298.941 239.204 299.372 240.027 299.658C240.85 299.945 241.729 300.082 242.611 300.06C243.493 300.039 244.362 299.861 245.166 299.535C245.971 299.209 246.696 298.743 247.3 298.163C247.903 297.584 248.372 296.902 248.68 296.157C248.988 295.413 249.129 294.621 249.094 293.828C249.06 293.034 248.851 292.254 248.479 291.534L209.559 213.534Z" fill="#7F00E0"/>
<path fill-rule="evenodd" clip-rule="evenodd" d="M221 108C221 144.451 188.093 174 147.5 174C106.907 174 74 144.451 74 108C74 71.5492 106.907 42 147.5 42C188.093 42 221 71.5492 221 108ZM209 108C209 136.641 182.713 162 147.5 162C112.287 162 86 136.641 86 108C86 79.3588 112.287 54 147.5 54C182.713 54 209 79.3588 209 108Z" fill="#7F00E0"/>
<path d="M49.9397 299.995C49.0646 299.97 48.2034 299.791 47.4054 299.466C45.7964 298.814 44.5405 297.613 43.9132 296.129C43.2858 294.644 43.3382 292.996 44.0588 291.546L82.9854 213.546C83.3372 212.818 83.8462 212.16 84.4828 211.609C85.1194 211.059 85.871 210.629 86.6941 210.342C87.5171 210.055 88.3952 209.919 89.2773 209.94C90.1595 209.961 91.0282 210.14 91.8331 210.465C92.638 210.791 93.3631 211.257 93.9662 211.837C94.5693 212.417 95.0386 213.099 95.3467 213.843C95.6548 214.587 95.7957 215.379 95.7611 216.173C95.7266 216.966 95.5173 217.746 95.1454 218.466L56.2254 296.466C55.8652 297.184 55.3514 297.832 54.7132 298.371C54.0749 298.911 53.3249 299.332 52.5059 299.61C51.6868 299.889 50.8149 300.02 49.9397 299.995Z" fill="#7F00E0"/>
<path fill-rule="evenodd" clip-rule="evenodd" d="M45.5855 334.482L14.1255 335.814C11.8033 335.916 9.49133 335.476 7.41349 334.537C5.33566 333.598 3.5624 332.193 2.26548 330.456C0.996567 328.77 0.231807 326.818 0.0449706 324.789C-0.141866 322.759 0.255527 320.721 1.19881 318.87L66.4121 188.148C66.0196 187.83 65.6258 187.515 65.232 187.201C64.0804 186.281 62.9281 185.36 61.8055 184.35C59.3188 182.112 56.9788 179.814 54.8588 177.516C53.2991 175.824 52.2924 173.775 51.9511 171.598C51.6097 169.42 51.947 167.201 52.9255 165.186L59.3655 151.656C55.6412 145.644 52.6995 139.266 50.5988 132.648L35.4388 127.194C33.1644 126.393 31.1817 125.039 29.7116 123.284C28.2414 121.529 27.3416 119.44 27.1122 117.252C26.8122 114.324 26.6655 111.204 26.6655 107.994C26.6655 104.784 26.8122 101.664 27.1122 98.73C27.3426 96.5435 28.2414 94.4572 29.7088 92.7024C31.1762 90.9475 33.1548 89.5926 35.4255 88.788L50.5988 83.328C52.7008 76.7121 55.6424 70.3361 59.3655 64.326L52.9255 50.796C51.9477 48.7816 51.6101 46.5625 51.9502 44.3856C52.2903 42.2088 53.2949 40.1596 54.8521 38.466C56.9721 36.174 59.3321 33.858 61.8121 31.626C64.2921 29.394 66.8455 27.282 69.4055 25.362C71.2888 23.9586 73.5685 23.0538 75.99 22.7487C78.4115 22.4436 80.8796 22.7501 83.1188 23.634L98.1455 29.424C104.823 26.0721 111.907 23.4246 119.259 21.534L125.332 7.88999C126.222 5.84264 127.725 4.05787 129.676 2.73466C131.626 1.41144 133.947 0.6018 136.379 0.395994C143.224 -0.131998 150.107 -0.131998 156.952 0.395994C159.384 0.599944 161.704 1.40818 163.655 2.73046C165.606 4.05274 167.11 5.837 167.999 7.88399L174.072 21.534C181.435 23.4225 188.531 26.07 195.219 29.424L210.259 23.628C212.496 22.7452 214.963 22.4399 217.382 22.7461C219.801 23.0523 222.079 23.958 223.959 25.362C226.519 27.282 229.065 29.388 231.559 31.632C234.052 33.876 236.392 36.174 238.505 38.466C240.065 40.1574 241.071 42.2054 241.412 44.3815C241.754 46.5576 241.417 48.7762 240.439 50.79L233.999 64.326C237.711 70.3412 240.642 76.7213 242.732 83.34L257.892 88.794C260.169 89.5945 262.156 90.9473 263.63 92.7024C265.105 94.4574 266.01 96.5459 266.245 98.736C266.545 101.664 266.692 104.778 266.692 107.994C266.692 111.21 266.545 114.324 266.245 117.264C266.017 119.452 265.118 121.539 263.649 123.295C262.18 125.05 260.199 126.404 257.925 127.206L242.765 132.66C240.665 139.278 237.723 145.656 233.999 151.668L240.405 165.198C241.383 167.212 241.721 169.432 241.381 171.608C241.041 173.785 240.036 175.834 238.479 177.528C236.352 179.826 234.012 182.124 231.519 184.368C230.199 185.561 228.833 186.645 227.467 187.729L227.115 188.009C226.936 188.151 226.758 188.293 226.579 188.436L292.145 318.882C293.086 320.731 293.481 322.766 293.293 324.793C293.105 326.819 292.34 328.767 291.072 330.45C289.786 332.183 288.023 333.588 285.956 334.528C283.888 335.468 281.586 335.911 279.272 335.814L247.939 334.434L227.672 355.722C226.402 357.064 224.823 358.14 223.044 358.878C221.266 359.616 219.33 359.997 217.372 359.994C216.721 359.993 216.07 359.951 215.425 359.868C213.174 359.591 211.036 358.806 209.213 357.584C207.39 356.363 205.94 354.746 204.999 352.884L146.665 236.73L88.3388 352.872C87.398 354.736 85.9477 356.356 84.1232 357.579C82.2987 358.803 80.1596 359.59 77.9055 359.868C77.2607 359.951 76.6102 359.993 75.9588 359.994C74.0059 359.997 72.0754 359.619 70.3006 358.886C68.5258 358.152 66.9489 357.081 65.6788 355.746L45.5855 334.482ZM242.501 323.488C244.38 322.75 246.416 322.392 248.465 322.44L279.859 323.856L214.359 193.284C212.936 193.185 211.538 192.886 210.219 192.396L195.185 186.594C188.505 189.941 181.415 192.578 174.059 194.454L167.999 208.104C167.126 210.089 165.675 211.826 163.798 213.131C161.921 214.436 159.687 215.262 157.332 215.52L153.999 222.168L217.139 347.928L237.592 326.712C238.946 325.327 240.622 324.226 242.501 323.488ZM62.6655 126.762C64.7411 134.299 68.0649 141.511 72.5255 148.158C73.0705 148.973 73.3922 149.894 73.4641 150.843C73.536 151.792 73.3559 152.744 72.9388 153.618L65.1788 169.92C67.0255 171.918 69.1255 173.934 71.2455 175.872C73.3655 177.81 75.6055 179.67 77.9121 181.41L95.9121 174.342C96.8856 173.967 97.9442 173.807 99.0004 173.874C100.056 173.94 101.08 174.233 101.985 174.726C109.368 178.742 117.38 181.736 125.752 183.606C126.779 183.835 127.731 184.281 128.529 184.907C129.326 185.533 129.947 186.321 130.339 187.206L137.672 203.646C143.68 204.123 149.724 204.123 155.732 203.646L162.906 187.212C163.298 186.327 163.918 185.539 164.716 184.913C165.513 184.287 166.465 183.841 167.492 183.612C175.864 181.742 183.876 178.748 191.259 174.732C192.165 174.239 193.188 173.946 194.244 173.88C195.3 173.813 196.359 173.973 197.332 174.348L215.452 181.32C217.672 179.658 219.912 177.804 222.059 175.866C224.232 173.922 226.285 171.908 228.219 169.824L220.372 153.624C219.954 152.749 219.773 151.797 219.845 150.846C219.917 149.896 220.239 148.974 220.785 148.158C225.253 141.513 228.584 134.3 230.665 126.762C230.92 125.838 231.416 124.981 232.112 124.263C232.807 123.545 233.683 122.987 234.665 122.634L252.919 116.034H252.972C253.192 113.472 253.319 110.73 253.319 107.994C253.319 105.258 253.192 102.516 252.919 99.822L234.665 93.354C233.683 93.0016 232.808 92.4441 232.113 91.7273C231.417 91.0106 230.921 90.1553 230.665 89.232C228.586 81.7041 225.262 74.4998 220.805 67.86C220.259 67.0439 219.937 66.1224 219.865 65.1719C219.793 64.2214 219.974 63.2692 220.392 62.394L228.125 46.086C226.279 44.082 224.259 42.126 222.059 40.134C219.859 38.142 217.612 36.282 215.359 34.596L197.359 41.658C196.386 42.0335 195.328 42.1951 194.271 42.1293C193.215 42.0636 192.192 41.7725 191.285 41.28C183.903 37.2625 175.891 34.267 167.519 32.394C166.492 32.1646 165.54 31.7185 164.742 31.0925C163.945 30.4665 163.324 29.6786 162.932 28.794L155.632 12.354C149.627 11.865 143.584 11.865 137.579 12.354L130.399 28.794C130.007 29.6786 129.386 30.4665 128.589 31.0925C127.791 31.7185 126.839 32.1646 125.812 32.394C117.45 34.2637 109.448 37.253 102.072 41.262C101.166 41.7545 100.142 42.0456 99.0862 42.1113C98.0301 42.1771 96.9718 42.0155 95.9988 41.64L77.8655 34.65C75.6988 36.258 73.4521 38.118 71.2588 40.104C69.0855 42.044 67.0321 44.056 65.0988 46.14L72.9455 62.34C73.3637 63.2152 73.5444 64.1674 73.4725 65.1179C73.4006 66.0684 73.0783 66.9899 72.5321 67.806C68.0656 74.454 64.7351 81.6687 62.6522 89.208C62.3964 90.1313 61.9002 90.9866 61.2047 91.7033C60.5092 92.4201 59.6343 92.9776 58.6521 93.33L40.3922 99.93C40.1255 102.516 39.9988 105.222 39.9988 107.994C39.9988 110.766 40.1255 113.472 40.3988 116.166L58.6655 122.634C59.6484 122.987 60.5238 123.545 61.2194 124.263C61.915 124.981 62.4106 125.838 62.6655 126.762ZM83.1055 192.366C81.6372 192.908 80.072 193.207 78.4855 193.248L13.3321 323.814L44.7921 322.446C46.8753 322.372 48.9502 322.721 50.8627 323.468C52.7751 324.215 54.476 325.34 55.8388 326.76L75.8388 347.952L142.505 215.838C141.978 215.821 141.449 215.807 140.921 215.793C139.394 215.754 137.871 215.714 136.385 215.598C133.954 215.393 131.632 214.586 129.68 213.265C127.727 211.944 126.22 210.162 125.325 208.116L119.259 194.454C111.906 192.568 104.821 189.92 98.1455 186.564L83.1055 192.366Z" fill="#7F00E0"/>
<path fill-rule="evenodd" clip-rule="evenodd" d="M72.5255 148.158C68.0649 141.511 64.7411 134.299 62.6655 126.762C62.4106 125.838 61.915 124.981 61.2194 124.263C60.5238 123.545 59.6484 122.987 58.6655 122.634L40.3988 116.166C40.1255 113.472 39.9988 110.766 39.9988 107.994C39.9988 105.222 40.1255 102.516 40.3922 99.93L58.6521 93.33C59.6343 92.9776 60.5092 92.4201 61.2047 91.7033C61.9002 90.9866 62.3964 90.1313 62.6522 89.208C64.7351 81.6687 68.0656 74.454 72.5321 67.806C73.0783 66.9899 73.4006 66.0684 73.4725 65.1179C73.5444 64.1674 73.3637 63.2152 72.9455 62.34L65.0988 46.14C67.0321 44.056 69.0855 42.044 71.2588 40.104C73.4521 38.118 75.6988 36.258 77.8655 34.65L95.9988 41.64C96.9718 42.0155 98.0301 42.1771 99.0862 42.1113C100.142 42.0456 101.166 41.7545 102.072 41.262C109.448 37.253 117.45 34.2637 125.812 32.394C126.839 32.1646 127.791 31.7185 128.589 31.0925C129.386 30.4665 130.007 29.6786 130.399 28.794L137.579 12.354C143.584 11.865 149.627 11.865 155.632 12.354L162.932 28.794C163.324 29.6786 163.945 30.4665 164.742 31.0925C165.54 31.7185 166.492 32.1646 167.519 32.394C175.891 34.267 183.903 37.2625 191.285 41.28C192.192 41.7725 193.215 42.0636 194.271 42.1293C195.328 42.1951 196.386 42.0335 197.359 41.658L215.359 34.596C217.612 36.282 219.859 38.142 222.059 40.134C224.259 42.126 226.279 44.082 228.125 46.086L220.392 62.394C219.974 63.2692 219.793 64.2214 219.865 65.1719C219.937 66.1224 220.259 67.0439 220.805 67.86C225.262 74.4998 228.586 81.7041 230.665 89.232C230.921 90.1553 231.417 91.0106 232.113 91.7273C232.808 92.4441 233.683 93.0016 234.665 93.354L252.919 99.822C253.192 102.516 253.319 105.258 253.319 107.994C253.319 110.73 253.192 113.472 252.972 116.034H252.919L234.665 122.634C233.683 122.987 232.807 123.545 232.112 124.263C231.416 124.981 230.92 125.838 230.665 126.762C228.584 134.3 225.253 141.513 220.785 148.158C220.239 148.974 219.917 149.896 219.845 150.846C219.773 151.797 219.954 152.749 220.372 153.624L228.219 169.824C226.285 171.908 224.232 173.922 222.059 175.866C219.912 177.804 217.672 179.658 215.452 181.32L197.332 174.348C196.359 173.973 195.3 173.813 194.244 173.88C193.188 173.946 192.165 174.239 191.259 174.732C183.876 178.748 175.864 181.742 167.492 183.612C166.465 183.841 165.513 184.287 164.716 184.913C163.918 185.539 163.298 186.327 162.906 187.212L155.732 203.646C149.724 204.123 143.68 204.123 137.672 203.646L130.339 187.206C129.947 186.321 129.326 185.533 128.529 184.907C127.731 184.281 126.779 183.835 125.752 183.606C117.38 181.736 109.368 178.742 101.985 174.726C101.08 174.233 100.056 173.94 99.0004 173.874C97.9442 173.807 96.8856 173.967 95.9121 174.342L77.9121 181.41C75.6055 179.67 73.3655 177.81 71.2455 175.872C69.1255 173.934 67.0255 171.918 65.1788 169.92L72.9388 153.618C73.3559 152.744 73.536 151.792 73.4641 150.843C73.3922 149.894 73.0705 148.973 72.5255 148.158ZM221 108C221 144.451 188.093 174 147.5 174C106.907 174 74 144.451 74 108C74 71.5492 106.907 42 147.5 42C188.093 42 221 71.5492 221 108Z" fill="#AADCEC"/>
<path fill-rule="evenodd" clip-rule="evenodd" d="M248.465 322.44C246.416 322.392 244.38 322.75 242.501 323.488C240.622 324.226 238.946 325.327 237.592 326.712L217.139 347.928L153.999 222.168L157.332 215.52C159.687 215.262 161.921 214.436 163.798 213.131C165.675 211.826 167.126 210.089 167.999 208.104L174.059 194.454C181.415 192.578 188.505 189.941 195.185 186.594L210.219 192.396C211.538 192.886 212.936 193.185 214.359 193.284L279.859 323.856L248.465 322.44ZM209.559 213.534C208.834 212.082 207.498 210.949 205.844 210.383C204.191 209.818 202.356 209.867 200.742 210.519C199.129 211.172 197.869 212.374 197.241 213.862C196.613 215.35 196.667 217.002 197.392 218.454L236.319 296.454C236.671 297.183 237.18 297.841 237.816 298.391C238.453 298.941 239.204 299.372 240.027 299.658C240.85 299.945 241.729 300.082 242.611 300.06C243.493 300.039 244.362 299.861 245.166 299.535C245.971 299.209 246.696 298.743 247.3 298.163C247.903 297.584 248.372 296.902 248.68 296.157C248.988 295.413 249.129 294.621 249.094 293.828C249.06 293.034 248.851 292.254 248.479 291.534L209.559 213.534Z" fill="#AADCEC"/>
<path fill-rule="evenodd" clip-rule="evenodd" d="M78.4855 193.248C80.072 193.207 81.6372 192.908 83.1055 192.366L98.1455 186.564C104.821 189.92 111.906 192.568 119.259 194.454L125.325 208.116C126.22 210.162 127.727 211.944 129.68 213.265C131.632 214.586 133.954 215.393 136.385 215.598C137.871 215.714 139.394 215.754 140.921 215.793C141.449 215.807 141.978 215.821 142.505 215.838L75.8388 347.952L55.8388 326.76C54.476 325.34 52.7751 324.215 50.8627 323.468C48.9502 322.721 46.8753 322.372 44.7921 322.446L13.3321 323.814L78.4855 193.248ZM49.9397 299.995C49.0646 299.97 48.2034 299.791 47.4054 299.466C45.7964 298.814 44.5405 297.613 43.9132 296.129C43.2858 294.644 43.3382 292.996 44.0588 291.546L82.9854 213.546C83.3372 212.818 83.8462 212.16 84.4828 211.609C85.1194 211.059 85.871 210.629 86.6941 210.342C87.5171 210.055 88.3952 209.919 89.2773 209.94C90.1595 209.961 91.0282 210.14 91.8331 210.465C92.638 210.791 93.3631 211.257 93.9662 211.837C94.5693 212.417 95.0386 213.099 95.3467 213.843C95.6548 214.587 95.7957 215.379 95.7611 216.173C95.7266 216.966 95.5173 217.746 95.1454 218.466L56.2254 296.466C55.8652 297.184 55.3514 297.832 54.7132 298.371C54.0749 298.911 53.3249 299.332 52.5059 299.61C51.6868 299.889 50.8149 300.02 49.9397 299.995Z" fill="#AADCEC"/>
<path d="M115.952 114.758C114.702 115.883 114 117.409 114 119C114 120.591 114.702 122.117 115.952 123.242L129.285 135.242C130.535 136.367 132.231 137 133.999 137H134.472C135.426 136.937 136.354 136.69 137.192 136.276C138.031 135.862 138.761 135.29 139.332 134.6L179.332 86.6C180.393 85.327 180.848 83.7268 180.598 82.1515C180.348 80.5762 179.413 79.1548 177.999 78.2C176.584 77.2452 174.806 76.8353 173.056 77.0603C171.305 77.2854 169.726 78.127 168.665 79.4L133.279 121.868L125.379 114.758C124.128 113.633 122.433 113.001 120.665 113.001C118.897 113.001 117.202 113.633 115.952 114.758Z" fill="#7F00E0"/>
</svg>
