<svg width="361" height="330" viewBox="0 0 361 330" fill="none" xmlns="http://www.w3.org/2000/svg">
<path d="M185 6L17 106.8H353L185 6ZM185 45.6C196.046 45.6 205 53.6589 205 63.6C205 73.5411 196.046 81.6 185 81.6C173.954 81.6 165 73.5411 165 63.6C165 53.6589 173.954 45.6 185 45.6ZM49 114V258H81V114H49ZM129 114V258H161V114H129ZM209 114V258H241V114H209ZM289 114V258H321V114H289ZM25 265.2V294H345V265.2H25ZM9 301.2V330H361V301.2H9Z" fill="#AADCEC"/>
<path d="M176 0C174.923 0.06624 174.204 0.2988 173.8 0.5625L9.53333 101.362C8.10222 102.2 7.44957 103.92 7.94444 105.412C8.43928 106.905 10.0381 108.041 11.7333 108H39.1111V259.2H11.7333C10.6961 259.2 9.70133 259.58 8.96787 260.255C8.23442 260.93 7.82233 261.845 7.82222 262.8V288H3.91111C2.87385 288 1.87911 288.38 1.14565 289.055C0.412199 289.73 0.00010371 290.645 0 291.6V320.4C0.00010371 321.355 0.412199 322.271 1.14565 322.946C1.87911 323.621 2.87385 324 3.91111 324H348.089C349.126 324 350.121 323.621 350.854 322.946C351.588 322.271 352 321.355 352 320.4V291.6C352 290.645 351.588 289.73 350.854 289.055C350.121 288.38 349.126 288 348.089 288H344.178V262.8C344.178 261.845 343.766 260.93 343.032 260.255C342.299 259.58 341.304 259.2 340.267 259.2H312.889V108H340.267C341.962 108.04 343.561 106.905 344.056 105.412C344.55 103.92 343.898 102.2 342.467 101.362L178.2 0.5625C177.323 0.00147602 176.708 0.01782 176 0ZM176 7.875L327.433 100.8H24.5667L176 7.875ZM176 39.6C163.086 39.6 152.533 49.3133 152.533 61.2C152.533 73.0867 163.086 82.8 176 82.8C188.914 82.8 199.467 73.0867 199.467 61.2C199.467 49.3133 188.914 39.6 176 39.6ZM176 46.8C184.687 46.8 191.644 53.2045 191.644 61.2C191.644 69.1956 184.687 75.6 176 75.6C167.313 75.6 160.356 69.1956 160.356 61.2C160.356 53.2045 167.313 46.8 176 46.8ZM46.9333 108H70.4V259.2H46.9333V108ZM78.2222 108H117.333V259.2H78.2222V108ZM125.156 108H148.622V259.2H125.156V108ZM156.444 108H195.556V259.2H156.444V108ZM203.378 108H226.844V259.2H203.378V108ZM234.667 108H273.778V259.2H234.667V108ZM281.6 108H305.067V259.2H281.6V108ZM15.6444 266.4H336.356V288H15.6444V266.4ZM7.82222 295.2H344.178V316.8H7.82222V295.2Z" fill="#7F00E0"/>
</svg>
